<svg id="visual" viewBox="0 0 900 600" width="900" height="600" xmlns="http://www.w3.org/2000/svg" xmlns:xlink="http://www.w3.org/1999/xlink" version="1.1"><rect x="0" y="0" width="900" height="600" fill="#001220"></rect><path d="M0 406L21.5 413C43 420 86 434 128.8 432C171.7 430 214.3 412 257.2 404.5C300 397 343 400 385.8 407C428.7 414 471.3 425 514.2 431C557 437 600 438 642.8 435.7C685.7 433.3 728.3 427.7 771.2 421.2C814 414.7 857 407.3 878.5 403.7L900 400L900 601L878.5 601C857 601 814 601 771.2 601C728.3 601 685.7 601 642.8 601C600 601 557 601 514.2 601C471.3 601 428.7 601 385.8 601C343 601 300 601 257.2 601C214.3 601 171.7 601 128.8 601C86 601 43 601 21.5 601L0 601Z" fill="#fa7268"></path><path d="M0 435L21.5 428.8C43 422.7 86 410.3 128.8 406.7C171.7 403 214.3 408 257.2 420.3C300 432.7 343 452.3 385.8 463C428.7 473.7 471.3 475.3 514.2 462.3C557 449.3 600 421.7 642.8 408C685.7 394.3 728.3 394.7 771.2 401.2C814 407.7 857 420.3 878.5 426.7L900 433L900 601L878.5 601C857 601 814 601 771.2 601C728.3 601 685.7 601 642.8 601C600 601 557 601 514.2 601C471.3 601 428.7 601 385.8 601C343 601 300 601 257.2 601C214.3 601 171.7 601 128.8 601C86 601 43 601 21.5 601L0 601Z" fill="#ef5f67"></path><path d="M0 476L21.5 480.3C43 484.7 86 493.3 128.8 493.3C171.7 493.3 214.3 484.7 257.2 476.7C300 468.7 343 461.3 385.8 457.3C428.7 453.3 471.3 452.7 514.2 457.7C557 462.7 600 473.3 642.8 481.5C685.7 489.7 728.3 495.3 771.2 488.5C814 481.7 857 462.3 878.5 452.7L900 443L900 601L878.5 601C857 601 814 601 771.2 601C728.3 601 685.7 601 642.8 601C600 601 557 601 514.2 601C471.3 601 428.7 601 385.8 601C343 601 300 601 257.2 601C214.3 601 171.7 601 128.8 601C86 601 43 601 21.5 601L0 601Z" fill="#e34c67"></path><path d="M0 540L21.5 537.8C43 535.7 86 531.3 128.8 530.3C171.7 529.3 214.3 531.7 257.2 527C300 522.3 343 510.7 385.8 502.3C428.7 494 471.3 489 514.2 491.5C557 494 600 504 642.8 508.7C685.7 513.3 728.3 512.7 771.2 508.8C814 505 857 498 878.5 494.5L900 491L900 601L878.5 601C857 601 814 601 771.2 601C728.3 601 685.7 601 642.8 601C600 601 557 601 514.2 601C471.3 601 428.7 601 385.8 601C343 601 300 601 257.2 601C214.3 601 171.7 601 128.8 601C86 601 43 601 21.5 601L0 601Z" fill="#d53867"></path><path d="M0 559L21.5 553.5C43 548 86 537 128.8 531.7C171.7 526.3 214.3 526.7 257.2 527.5C300 528.3 343 529.7 385.8 535.8C428.7 542 471.3 553 514.2 552C557 551 600 538 642.8 533C685.7 528 728.3 531 771.2 535.7C814 540.3 857 546.7 878.5 549.8L900 553L900 601L878.5 601C857 601 814 601 771.2 601C728.3 601 685.7 601 642.8 601C600 601 557 601 514.2 601C471.3 601 428.7 601 385.8 601C343 601 300 601 257.2 601C214.3 601 171.7 601 128.8 601C86 601 43 601 21.5 601L0 601Z" fill="#c62368"></path></svg>